<svg xmlns="http://www.w3.org/2000/svg" version="1.1" xmlns:xlink="http://www.w3.org/1999/xlink" width="512" height="512" x="0" y="0" viewBox="0 0 512 512" style="enable-background:new 0 0 512 512" xml:space="preserve" class=""><g><path fill="#fe9923" fill-rule="evenodd" d="M259.274 193.554c-12.827-22.221 27.282-69.368 89.582-105.346 62.271-35.949 123.176-47.118 136.002-24.897 7.097 12.303 14.193 24.606 21.319 36.938 12.827 22.192-27.282 69.339-89.582 105.317-62.3 35.949-123.176 47.118-136.002 24.926-7.096-12.332-14.222-24.635-21.319-36.938z" clip-rule="evenodd" opacity="1" data-original="#fe9923" class=""></path><path fill="#fecd3d" fill-rule="evenodd" d="M348.856 88.208c62.271-35.949 123.176-47.118 136.002-24.897 12.827 22.192-27.282 69.339-89.582 105.317s-123.175 47.118-136.002 24.926c-12.827-22.221 27.282-69.368 89.582-105.346z" clip-rule="evenodd" opacity="1" data-original="#fecd3d" class=""></path><path fill="#fea832" fill-rule="evenodd" d="M359.705 106.997c49.561-28.591 95.254-42.202 102.089-30.394 6.835 11.838-27.805 44.617-77.367 73.236-49.561 28.62-95.283 42.232-102.089 30.394-6.834-11.837 27.806-44.616 77.367-73.236z" clip-rule="evenodd" opacity="1" data-original="#fea832" class=""></path><path fill="#c85929" d="m480.205 125.67 11.343 19.661c2.705-3.316 5.148-6.573 7.242-9.773l-8.958-15.473zm-9.715 41.417a283.396 283.396 0 0 1-8.58 7.359l-10.82-18.76 9.627-5.526zm-32.11 24.839a322.62 322.62 0 0 1-9.307 6.108l-10.325-17.887 9.627-5.526zm-34.524 20.65c-3.345 1.774-6.66 3.432-9.947 5.061l-10.035-17.335 9.656-5.584zm-36.851 16.666a248.456 248.456 0 0 1-10.674 3.752l-9.802-16.927 9.656-5.555zm-40.05 11.11c-4.217.698-8.261 1.164-12.071 1.396l-8.929-15.473 9.656-5.584z" opacity="1" data-original="#c85929"></path><path fill="#fe9923" fill-rule="evenodd" d="M249.793 289.971c12.826-22.192-27.282-69.368-89.582-105.317-62.271-35.978-123.176-47.118-136.002-24.926-7.097 12.303-14.193 24.635-21.319 36.938-12.827 22.192 27.282 69.368 89.582 105.317 62.3 35.978 123.176 47.118 136.002 24.926 7.125-12.302 14.221-24.635 21.319-36.938z" clip-rule="evenodd" opacity="1" data-original="#fe9923" class=""></path><path fill="#fecd3d" fill-rule="evenodd" d="M160.21 184.654c-62.271-35.978-123.176-47.118-136.002-24.926-12.797 22.221 27.311 69.368 89.582 105.317 62.3 35.978 123.205 47.118 136.002 24.926 12.827-22.192-27.282-69.368-89.582-105.317z" clip-rule="evenodd" opacity="1" data-original="#fecd3d" class=""></path><path fill="#fea832" fill-rule="evenodd" d="M149.362 203.443c-49.532-28.62-95.254-42.231-102.089-30.394-6.835 11.809 27.805 44.617 77.366 73.207 49.561 28.62 95.283 42.231 102.118 30.394 6.806-11.808-27.834-44.587-77.395-73.207z" clip-rule="evenodd" opacity="1" data-original="#fea832" class=""></path><path fill="#c85929" d="m28.862 222.087-11.343 19.661c-2.705-3.316-5.119-6.573-7.213-9.744l8.929-15.502zm9.714 41.417a280.762 280.762 0 0 0 8.58 7.359l10.819-18.731-9.627-5.555zm32.11 24.868a346.938 346.938 0 0 0 9.336 6.079l10.325-17.887-9.656-5.526zm34.524 20.65a357.555 357.555 0 0 0 9.977 5.032l10.005-17.335-9.656-5.584zm36.88 16.637a223.847 223.847 0 0 0 10.674 3.752l9.773-16.927-9.656-5.526zm40.021 11.139c4.247.669 8.26 1.134 12.07 1.367l8.929-15.473-9.627-5.584z" opacity="1" data-original="#c85929"></path><path fill="#fe9923" fill-rule="evenodd" d="M240.805 411.751c-12.798-22.192 27.282-69.339 89.582-105.317 62.3-35.949 123.176-47.118 136.002-24.926a52783.682 52783.682 0 0 1 21.319 36.938c12.827 22.221-27.282 69.368-89.553 105.346-62.3 35.949-123.205 47.118-136.031 24.897a52783.682 52783.682 0 0 0-21.319-36.938z" clip-rule="evenodd" opacity="1" data-original="#fe9923" class=""></path><path fill="#fecd3d" fill-rule="evenodd" d="M330.387 306.433c62.3-35.949 123.176-47.118 136.002-24.926 12.827 22.221-27.282 69.368-89.582 105.346-62.271 35.949-123.175 47.118-136.002 24.897-12.798-22.191 27.282-69.338 89.582-105.317z" clip-rule="evenodd" opacity="1" data-original="#fecd3d" class=""></path><path fill="#fea832" fill-rule="evenodd" d="M341.236 325.223c49.561-28.62 95.283-42.203 102.089-30.394 6.835 11.837-27.805 44.616-77.367 73.236-49.561 28.591-95.254 42.202-102.089 30.394-6.834-11.838 27.806-44.617 77.367-73.236z" clip-rule="evenodd" opacity="1" data-original="#fea832" class=""></path><path fill="#c85929" d="m461.736 343.895 11.372 19.662a121.252 121.252 0 0 0 7.213-9.773l-8.929-15.473zm-9.686 41.388a247.612 247.612 0 0 1-8.609 7.359l-10.82-18.731 9.656-5.526zm-32.11 24.868a370.313 370.313 0 0 1-9.336 6.108l-10.325-17.887 9.656-5.555zm-34.553 20.65a356.182 356.182 0 0 1-9.947 5.032l-10.006-17.335 9.627-5.584zm-36.851 16.666a339.483 339.483 0 0 1-10.674 3.752l-9.773-16.957 9.627-5.526zm-40.021 11.111c-4.247.698-8.29 1.134-12.071 1.367l-8.929-15.473 9.627-5.584z" opacity="1" data-original="#c85929"></path><path fill="#fea832" d="M215.821 104.001v16.55h16.549v14.368h-16.549v16.578h-14.368v-16.578h-16.579v-14.368h16.579v-16.55zM164.631 369.461v16.55h16.578v14.367h-16.578v16.579h-14.368v-16.579h-16.549v-14.367h16.549v-16.55zM494.922 207.137v16.549H511.5v14.369h-16.578v16.578h-14.369v-16.578h-16.549v-14.369h16.549v-16.549z" opacity="1" data-original="#fea832" class=""></path></g></svg>