<svg width="24" height="24" viewBox="0 0 24 24" fill="none" xmlns="http://www.w3.org/2000/svg">
<path d="M21 12.3434C21.5523 12.3434 22.0054 12.7926 21.9525 13.3424C21.4595 18.4652 17.1917 22 12 22C6.47715 22 2 17.5228 2 12C2 6.81602 5.50407 2.55335 10.5014 2.04977C11.0509 1.9944 11.5 2.44772 11.5 3V10.3434C11.5 11.448 12.3954 12.3434 13.5 12.3434H21Z" fill="#A6B9FF"/>
<path d="M13 3C13 2.44772 13.4494 1.99421 13.9985 2.05381C18.1944 2.5093 21.4907 5.80558 21.9462 10.0015C22.0058 10.5506 21.5523 11 21 11H14C13.4477 11 13 10.5523 13 10V3Z" fill="#4F75FF"/>
</svg>
