<svg xmlns="http://www.w3.org/2000/svg" version="1.1" xmlns:xlink="http://www.w3.org/1999/xlink" width="512" height="512" x="0" y="0" viewBox="0 0 512 512" style="enable-background:new 0 0 512 512" xml:space="preserve" class=""><g><circle cx="256" cy="256" r="256" fill="#4F75FF" opacity="1" data-original="#27D1A8"></circle><path fill="#ffffff" d="M387.823 256.136c0 72.688-59.135 131.823-131.823 131.823s-131.824-59.135-131.824-131.823A132.14 132.14 0 0 1 201.677 136a16 16 0 1 1 13.2 29.15 99.852 99.852 0 1 0 103.749 13.25v25.833a16 16 0 0 1-32 0v-64.192a16 16 0 0 1 16-16h64.192a16 16 0 0 1 0 32h-25.066a132.143 132.143 0 0 1 46.071 100.095z" opacity="1" data-original="#ffffff"></path></g></svg>