<svg width="24" height="24" viewBox="0 0 24 24" fill="none" xmlns="http://www.w3.org/2000/svg">
<path fill-rule="evenodd" clip-rule="evenodd" d="M13.7788 2.15224C13.4085 2 12.939 2 12 2C11.061 2 10.5915 2 10.2212 2.15224C9.7274 2.35523 9.33509 2.74458 9.13056 3.23463C9.03719 3.45834 9.00065 3.7185 8.98635 4.09799C8.96534 4.65568 8.67716 5.17189 8.19017 5.45093C7.70318 5.72996 7.10864 5.71954 6.61149 5.45876C6.27318 5.2813 6.02789 5.18262 5.78599 5.15102C5.25609 5.08178 4.72018 5.22429 4.29616 5.5472C3.97814 5.78938 3.74339 6.1929 3.2739 6.99993C2.80441 7.80697 2.56967 8.21048 2.51735 8.60491C2.44758 9.1308 2.59118 9.66266 2.91655 10.0835C3.06506 10.2756 3.27377 10.437 3.5977 10.639C4.07391 10.936 4.38032 11.4419 4.38029 12C4.38026 12.5581 4.07386 13.0639 3.5977 13.3608C3.27372 13.5629 3.06497 13.7244 2.91645 13.9165C2.59108 14.3373 2.44749 14.8691 2.51725 15.395C2.56957 15.7894 2.80432 16.193 3.2738 17C3.74329 17.807 3.97804 18.2106 4.29606 18.4527C4.72008 18.7756 5.25599 18.9181 5.78589 18.8489C6.02778 18.8173 6.27305 18.7186 6.61133 18.5412C7.10852 18.2804 7.7031 18.27 8.19012 18.549C8.67714 18.8281 8.96533 19.3443 8.98635 19.9021C9.00065 20.2815 9.03719 20.5417 9.13056 20.7654C9.33509 21.2554 9.7274 21.6448 10.2212 21.8478C10.5915 22 11.061 22 12 22C12.939 22 13.4085 22 13.7788 21.8478C14.2726 21.6448 14.6649 21.2554 14.8694 20.7654C14.9628 20.5417 14.9994 20.2815 15.0137 19.902C15.0347 19.3443 15.3228 18.8281 15.8098 18.549C16.2968 18.2699 16.8914 18.2804 17.3886 18.5412C17.7269 18.7186 17.9721 18.8172 18.214 18.8488C18.7439 18.9181 19.2798 18.7756 19.7038 18.4527C20.0219 18.2105 20.2566 17.807 20.7261 16.9999C21.1956 16.1929 21.4303 15.7894 21.4827 15.395C21.5524 14.8691 21.4088 14.3372 21.0835 13.9164C20.9349 13.7243 20.7262 13.5628 20.4022 13.3608C19.9261 13.0639 19.6197 12.558 19.6197 11.9999C19.6197 11.4418 19.9261 10.9361 20.4022 10.6392C20.7263 10.4371 20.935 10.2757 21.0836 10.0835C21.4089 9.66273 21.5525 9.13087 21.4828 8.60497C21.4304 8.21055 21.1957 7.80703 20.7262 7C20.2567 6.19297 20.022 5.78945 19.7039 5.54727C19.2799 5.22436 18.744 5.08185 18.2141 5.15109C17.9722 5.18269 17.7269 5.28136 17.3887 5.4588C16.8915 5.71959 16.2969 5.73002 15.8099 5.45096C15.3229 5.17191 15.0347 4.65566 15.0136 4.09794C14.9993 3.71848 14.9628 3.45833 14.8694 3.23463C14.6649 2.74458 14.2726 2.35523 13.7788 2.15224Z" fill="#A6B9FF"/>
<path d="M15 12C15 13.6569 13.6569 15 12 15C10.3431 15 9 13.6569 9 12C9 10.3431 10.3431 9 12 9C13.6569 9 15 10.3431 15 12Z" fill="#4F75FF"/>
</svg>
